HIERARCHY
ROOT Hips
{
	OFFSET -3.958830 18.904000 13.208200
	CHANNELS 6 Xposition Yposition Zposition Zrotation Yrotation Xrotation 
	JOINT LHipJoint
	{
		OFFSET 0.000000 0.000000 0.000000
		CHANNELS 3 Zrotation Yrotation Xrotation
		JOINT LeftUpLeg
		{
			OFFSET 1.800000 -1.400000 0.085000
			CHANNELS 3 Zrotation Yrotation Xrotation
			JOINT LeftLeg
			{
				OFFSET 2.215000 -6.000000 0.000000
				CHANNELS 3 Zrotation Yrotation Xrotation
				JOINT LeftFoot
				{
					OFFSET 2.500000 -6.900000 0.000000
					CHANNELS 3 Zrotation Yrotation Xrotation
					JOINT LeftToeBase
					{
						OFFSET 0.200000 -0.500000 1.950000
						CHANNELS 3 Zrotation Yrotation Xrotation
						End Site
						{
							OFFSET 0.000000 0.000000 0.000000
						}
					}
				}
			}
		}
	}
	JOINT RHipJoint
	{
		OFFSET 0.000000 0.000000 0.000000
		CHANNELS 3 Zrotation Yrotation Xrotation
		JOINT RightUpLeg
		{
			OFFSET -1.800000 -1.400000 0.085000
			CHANNELS 3 Zrotation Yrotation Xrotation
			JOINT RightLeg
			{
				OFFSET -2.215000 -6.000000 0.000000
				CHANNELS 3 Zrotation Yrotation Xrotation
				JOINT RightFoot
				{
					OFFSET -2.500000 -6.900000 0.000000
					CHANNELS 3 Zrotation Yrotation Xrotation
					JOINT RightToeBase
					{
						OFFSET -0.200000 -0.500000 1.950000
						CHANNELS 3 Zrotation Yrotation Xrotation
						End Site
						{
							OFFSET 0.000000 0.000000 0.000000
						}
					}
				}
			}
		}
	}
	JOINT LowerBack
	{
		OFFSET 0.000000 0.000000 0.000000
		CHANNELS 3 Zrotation Yrotation Xrotation
		JOINT Spine
		{
			OFFSET -0.087000 1.940000 -0.288900
			CHANNELS 3 Zrotation Yrotation Xrotation
			JOINT Spine1
			{
				OFFSET 0.000000 1.950000 0.060000
				CHANNELS 3 Zrotation Yrotation Xrotation
				JOINT Neck
				{
					OFFSET 0.000000 0.000000 0.000000
					CHANNELS 3 Zrotation Yrotation Xrotation
					JOINT Neck1
					{
						OFFSET 0.000000 1.600000 0.340000
						CHANNELS 3 Zrotation Yrotation Xrotation
						JOINT Head
						{
							OFFSET 0.000000 1.667000 -0.240000
							CHANNELS 3 Zrotation Yrotation Xrotation
							End Site
							{
								OFFSET 0.000000 0.000000 0.000000
							}
						}
					}
				}
				JOINT LeftShoulder
				{
					OFFSET 0.000000 0.000000 0.000000
					CHANNELS 3 Zrotation Yrotation Xrotation
					JOINT LeftArm
					{
						OFFSET 2.700000 1.550000 -0.730000
						CHANNELS 3 Zrotation Yrotation Xrotation
						JOINT LeftForeArm
						{
							OFFSET 5.450000 0.000000 0.000000
							CHANNELS 3 Zrotation Yrotation Xrotation
							JOINT LeftHand
							{
								OFFSET 3.450000 0.000000 0.000000
								CHANNELS 3 Zrotation Yrotation Xrotation
								JOINT LeftHandIndex1
								{
									OFFSET 0.750000 0.000000 0.000000
									CHANNELS 3 Zrotation Yrotation Xrotation
									End Site
									{
										OFFSET 0.000000 0.000000 0.000000
									}
								}
							}
						}
					}
				}
				JOINT RightShoulder
				{
					OFFSET 0.000000 0.000000 0.000000
					CHANNELS 3 Zrotation Yrotation Xrotation
					JOINT RightArm
					{
						OFFSET -2.700000 1.550000 -0.730000
						CHANNELS 3 Zrotation Yrotation Xrotation
						JOINT RightForeArm
						{
							OFFSET -5.450000 0.000000 0.000000
							CHANNELS 3 Zrotation Yrotation Xrotation
							JOINT RightHand
							{
								OFFSET -3.450000 0.000000 0.000000
								CHANNELS 3 Zrotation Yrotation Xrotation
								JOINT RightHandIndex1
								{
									OFFSET -0.750000 0.000000 0.000000
									CHANNELS 3 Zrotation Yrotation Xrotation
									End Site
									{
										OFFSET 0.000000 0.000000 0.000000
									}
								}
							}
						}
					}
				}
			}
		}
	}
}
MOTION
Frames: 14
Frame Time: 0.016667
-0.081920 17.583760 -1.079580 -2.970053 -30.294611 7.148207 -15.251941 13.552040 2.522497 6.437137 -1.303895 -10.105043 -5.971083 5.433800 11.214316 -0.583569 4.895036 3.398930 0.192410 -0.101060 -0.052250 18.263133 -10.257970 2.767533 -6.704848 2.718141 -25.650194 8.737869 -4.876680 12.943782 0.264430 -3.459445 3.305198 0.257120 1.278260 0.595570 -3.377272 -2.777459 -6.311084 7.059431 -4.817231 -0.332693 -0.981058 -5.391368 11.379262 -0.453644 -2.696415 -6.640785 -5.468145 10.511452 23.311849 -4.598080 9.290650 7.226870 -8.551255 -1.242442 2.122097 -28.675481 -11.609059 1.557256 -6.409404 -69.344133 3.045457 -4.498852 3.592380 -0.140390 1.068850 -0.604890 0.489500 9.972458 1.430003 2.374200 28.736225 6.954325 -0.521736 38.883547 69.573035 22.886189 1.594169 -2.546563 -0.395930 0.275820 0.078490 0.066650 
-0.080550 17.593510 -1.082740 -3.012527 -30.550470 7.091808 -15.242198 13.565248 2.539153 6.445634 -1.276395 -10.031585 -6.014135 5.438013 11.183339 -0.558023 4.837853 3.392833 0.206220 -0.090760 -0.029210 18.266670 -10.266774 2.773179 -6.460589 2.716919 -25.456787 8.449553 -4.759409 12.666085 0.238841 -3.353079 3.340006 0.230270 1.207760 0.581610 -3.392148 -2.789479 -6.350321 7.322846 -4.832544 -0.091616 -1.063503 -5.346352 11.414876 -0.415870 -3.057383 -7.063202 -6.204950 10.447032 24.245817 -4.550220 9.170350 6.546330 -7.991207 -2.224364 2.509540 -28.253747 -11.519130 1.567195 -12.709280 -66.479059 6.791663 -4.427409 3.600702 -0.084660 0.999280 -0.548360 0.478370 9.272204 2.692211 2.676841 27.962044 7.493335 -0.525732 39.307768 65.235612 21.554137 1.641421 -2.459552 -0.372990 0.262790 0.063120 0.058850 
-0.080560 17.605800 -1.086150 -3.040144 -30.812247 7.038564 -15.231755 13.583807 2.558781 6.453102 -1.245031 -9.940337 -6.059093 5.439185 11.120222 -0.520568 4.772934 3.389747 0.220060 -0.078180 -0.009970 18.270208 -10.274500 2.778708 -6.208299 2.716777 -25.320800 8.115734 -4.645765 12.483581 0.212011 -3.243680 3.375585 0.200330 1.135490 0.567380 -3.407099 -2.812870 -6.392080 7.605816 -4.879459 0.185372 -1.192640 -5.322365 11.359226 -0.376233 -3.491455 -7.519880 -7.107140 10.414207 25.196695 -4.408690 8.978350 5.895480 -7.449020 -3.158219 2.914942 -28.381585 -11.446695 1.463370 -16.791387 -63.227624 8.781727 -4.343309 3.592841 -0.032870 0.925090 -0.489300 0.470790 8.588536 3.964300 3.026512 27.723803 8.024443 -0.602946 39.029259 61.031180 19.847453 1.693892 -2.370448 -0.344030 0.247190 0.044880 0.056820 
-0.081220 17.619500 -1.089770 -3.081071 -31.066941 6.982585 -15.221528 13.607022 2.582498 6.501973 -1.215996 -9.848567 -6.159322 5.461077 11.065645 -0.476874 4.713641 3.384238 0.227860 -0.073670 0.008680 18.272198 -10.279070 2.787163 -5.943193 2.726171 -25.239870 7.785700 -4.547172 12.377004 0.186012 -3.131871 3.411327 0.162470 1.061360 0.552250 -3.417097 -2.848238 -6.442817 7.865930 -4.913502 0.519391 -1.285696 -5.286240 11.241271 -0.300040 -3.910110 -8.031926 -8.039094 10.352965 26.275421 -4.248750 8.773170 5.271340 -6.976375 -4.103381 3.336572 -29.033012 -11.448787 1.266956 -18.835316 -59.750400 9.311415 -4.253853 3.563400 0.020740 0.848000 -0.429540 0.458870 7.912523 5.241026 3.466261 28.001295 8.396235 -0.841635 38.030419 57.268349 17.938338 1.749645 -2.275225 -0.314290 0.229330 0.028920 0.054450 
-0.082450 17.632460 -1.093060 -3.150835 -31.259545 6.950495 -15.208880 13.632019 2.606839 6.612017 -1.196821 -9.793656 -6.313531 5.512445 11.084856 -0.433288 4.669108 3.377585 0.229910 -0.075000 0.020440 18.275242 -10.282559 2.799525 -5.693079 2.745830 -25.240982 7.520047 -4.482876 12.395090 0.163135 -3.030996 3.446952 0.124750 0.995020 0.532270 -3.431374 -2.886155 -6.498705 8.192412 -4.972109 0.896597 -1.459252 -5.259973 11.058395 -0.184359 -4.309601 -8.581113 -8.973947 10.325302 27.325203 -3.985820 8.530580 4.738470 -6.594377 -5.033277 3.754656 -30.101341 -11.502108 1.007974 -19.176253 -56.265437 8.795336 -4.167129 3.514980 0.072220 0.774520 -0.376230 0.449330 7.259337 6.476580 3.974327 28.781064 8.589668 -1.218948 36.471248 54.042214 15.990613 1.801009 -2.179789 -0.291160 0.217840 0.015260 0.052670 
-0.083830 17.642060 -1.095900 -3.184022 -31.354304 6.936166 -15.196423 13.659405 2.629016 6.665537 -1.189302 -9.795712 -6.400187 5.545189 11.150030 -0.393530 4.622965 3.372315 0.234350 -0.071660 0.029010 18.278186 -10.285316 2.812342 -5.514385 2.771206 -25.368871 7.290972 -4.454499 12.586381 0.142293 -2.952583 3.470567 0.092730 0.938420 0.520260 -3.444774 -2.928573 -6.549720 8.503167 -5.062918 1.269333 -1.699287 -5.257948 10.833791 -0.060703 -4.664267 -9.094293 -9.819819 10.327376 28.110430 -3.661930 8.249900 4.244400 -6.318063 -5.850544 4.130654 -31.472116 -11.605824 0.733867 -18.291594 -53.052440 7.694855 -4.093813 3.469774 0.112300 0.711890 -0.329650 0.441770 6.710379 7.558784 4.458995 29.964572 8.657009 -1.681189 34.380332 51.363013 14.061296 1.844750 -2.098644 -0.264990 0.203040 0.003280 0.055110 
-0.087170 17.646610 -1.097670 -3.185521 -31.369891 6.948585 -15.184533 13.682290 2.644545 6.700060 -1.189238 -9.829583 -6.457045 5.580884 11.279315 -0.359647 4.592799 3.369373 0.232520 -0.073790 0.030610 18.281925 -10.287436 2.826716 -5.400092 2.804033 -25.589939 7.128313 -4.450800 12.839398 0.130143 -2.899436 3.487801 0.065520 0.902610 0.511990 -3.460143 -2.960490 -6.590912 8.796841 -5.166790 1.592195 -2.017538 -5.263332 10.612766 0.070450 -4.914717 -9.521595 -10.416887 10.323804 28.533244 -3.387390 8.020450 3.969930 -6.099034 -6.475269 4.443025 -33.012179 -11.697294 0.455099 -16.600989 -50.351611 6.366284 -4.045102 3.426526 0.136180 0.669950 -0.299520 0.436340 6.214199 8.362924 4.859252 31.472460 8.637681 -2.170145 32.022791 49.238053 12.281650 1.876075 -2.034405 -0.245060 0.192080 -0.003510 0.059690 
-0.092700 17.646790 -1.098680 -3.146608 -31.240587 6.971834 -15.174314 13.704566 2.654488 6.705461 -1.202393 -9.927571 -6.465295 5.613882 11.483432 -0.333543 4.579191 3.371380 0.219610 -0.089100 0.018410 18.285025 -10.288253 2.840972 -5.342758 2.839596 -25.879111 7.019861 -4.474334 13.171383 0.128042 -2.873917 3.500874 0.040880 0.891160 0.506010 -3.471891 -2.992365 -6.623785 9.036847 -5.289443 1.884250 -2.364737 -5.285705 10.391953 0.190342 -5.072675 -9.885460 -10.771523 10.285876 28.577348 -3.127910 7.794050 4.038310 -5.963148 -6.966014 4.707370 -34.640527 -11.728148 0.130521 -14.262111 -48.196765 4.925743 -4.018450 3.384732 0.147300 0.649050 -0.288070 0.436220 5.832521 8.952004 5.214012 33.290107 8.415378 -2.799861 29.267292 47.800881 10.605769 1.891868 -1.986734 -0.236510 0.186840 -0.003520 0.066260 
-0.100790 17.643250 -1.099020 -3.086883 -31.095480 6.995489 -15.166034 13.720745 2.661706 6.728830 -1.216258 -10.000197 -6.515181 5.661236 11.689438 -0.307856 4.581861 3.371475 0.207720 -0.104350 0.008060 18.287736 -10.286606 2.855891 -5.344832 2.888779 -26.252592 7.014176 -4.547070 13.660224 0.125505 -2.874246 3.502368 0.018690 0.888960 0.505560 -3.481834 -3.016228 -6.650778 9.236544 -5.397637 2.160508 -2.740933 -5.293528 10.199195 0.310431 -5.169066 -10.172160 -10.947081 10.222369 28.345170 -2.929320 7.601180 4.134900 -5.974676 -7.306033 4.919900 -36.234294 -11.605275 -0.298267 -11.456125 -46.663705 3.458994 -4.003294 3.351023 0.150330 0.637590 -0.282550 0.437360 5.602701 9.344998 5.505685 35.233972 8.018981 -3.563409 26.312475 47.039889 9.089003 1.898796 -1.954006 -0.227830 0.182190 -0.002030 0.074030 
-0.110590 17.635350 -1.098940 -3.095544 -30.902397 7.089071 -15.155916 13.725074 2.663038 6.848718 -1.245578 -10.141730 -6.610920 5.730884 11.932242 -0.287999 4.606926 3.367546 0.182590 -0.133730 -0.011340 18.294061 -10.284575 2.874567 -5.312507 2.968301 -26.682553 7.036279 -4.636649 14.204877 0.132823 -2.895109 3.498397 -0.004190 0.902360 0.507950 -3.503082 -3.016439 -6.670763 9.551758 -5.503197 2.411520 -3.194521 -5.296750 10.021497 0.443161 -5.193476 -10.378030 -10.901033 10.099776 27.768148 -2.914680 7.493130 4.453310 -6.130288 -7.501535 5.075556 -37.695399 -11.307999 -0.836103 -8.495693 -45.850208 2.076901 -4.009318 3.322930 0.141090 0.643970 -0.292120 0.434440 5.489368 9.522342 5.734625 37.337501 7.440322 -4.494171 23.115722 47.014210 7.671828 1.892282 -1.935720 -0.226470 0.178070 0.009340 0.080750 
-0.122340 17.625040 -1.098130 -3.060551 -30.698842 7.172382 -15.148026 13.726632 2.662188 6.953769 -1.273310 -10.293628 -6.703319 5.807387 12.187756 -0.276633 4.642824 3.362325 0.140450 -0.177490 -0.043670 18.299057 -10.281745 2.893431 -5.349948 3.047215 -27.165284 7.106032 -4.757953 14.843534 0.149548 -2.937156 3.487355 -0.027430 0.928040 0.503820 -3.519118 -3.012514 -6.687258 9.799091 -5.597765 2.661586 -3.654804 -5.288888 9.835421 0.584475 -5.157448 -10.528722 -10.689956 9.936385 26.986006 -2.967410 7.412420 4.916210 -6.450097 -7.592018 5.191135 -39.032319 -10.807137 -1.513387 -5.339768 -45.672328 0.700538 -4.028012 3.291243 0.124850 0.660740 -0.315060 0.425390 5.529051 9.553055 5.925541 39.518750 6.685257 -5.589060 19.791395 47.605339 6.315740 1.876826 -1.921721 -0.237230 0.180680 0.032540 0.086320 
-0.135770 17.613080 -1.096280 -3.036247 -30.503378 7.322749 -15.139610 13.713616 2.655375 7.083976 -1.311819 -10.503594 -6.809330 5.888405 12.443370 -0.269773 4.685970 3.358743 0.091250 -0.228510 -0.082280 18.307205 -10.278879 2.915708 -5.407571 3.146391 -27.726155 7.213246 -4.897685 15.527081 0.174239 -3.000449 3.472775 -0.048980 0.964990 0.498560 -3.544711 -2.979854 -6.693612 10.120302 -5.665557 2.835261 -4.196745 -5.253793 9.648555 0.741199 -5.073044 -10.596235 -10.321694 9.738058 25.924015 -3.134760 7.396590 5.584900 -6.940016 -7.516837 5.238228 -40.097633 -10.081639 -2.303236 -2.456658 -46.216730 -0.533846 -4.058999 3.269616 0.097670 0.690600 -0.351480 0.416180 5.707276 9.376421 6.057527 41.755463 5.753308 -6.797811 16.492014 48.629194 4.986975 1.852264 -1.921336 -0.254080 0.183620 0.059440 0.091210 
-0.152100 17.599960 -1.093810 -2.992573 -30.283725 7.551806 -15.134658 13.691381 2.642097 7.170416 -1.359913 -10.781977 -6.833356 5.933159 12.632982 -0.271142 4.726937 3.360792 0.028160 -0.295900 -0.133280 18.315506 -10.271829 2.940493 -5.487284 3.269428 -28.406040 7.310610 -5.061157 16.322944 0.207715 -3.088880 3.450975 -0.073590 1.019480 0.497860 -3.567830 -2.935186 -6.687568 10.413146 -5.694966 2.892073 -4.715812 -5.196408 9.457025 0.890932 -4.945892 -10.591815 -9.827945 9.535810 24.595372 -3.404070 7.441290 6.479370 -7.504118 -7.246781 5.215664 -40.943198 -9.194459 -3.133313 -0.009217 -47.357697 -1.624039 -4.110312 3.258306 0.059310 0.737420 -0.402960 0.405250 5.983945 8.969001 6.141477 44.015970 4.600216 -8.132617 13.274942 50.101099 3.675448 1.816678 -1.931940 -0.277390 0.186800 0.097740 0.096630 
-0.171020 17.587490 -1.089980 -2.985324 -30.083225 7.860673 -15.130300 13.655323 2.625247 7.292330 -1.414524 -11.071289 -6.884570 5.964741 12.725723 -0.270935 4.771916 3.368406 -0.030360 -0.362450 -0.181190 18.326585 -10.260319 2.968630 -5.529719 3.423867 -29.127632 7.411271 -5.232537 17.156024 0.237324 -3.193294 3.421516 -0.096750 1.082890 0.507110 -3.598462 -2.871692 -6.673408 10.795787 -5.693357 2.862186 -5.250717 -5.116989 9.246737 1.029976 -4.851738 -10.530040 -9.381885 9.377063 23.123327 -3.691470 7.491740 7.407300 -8.200793 -6.794935 5.128501 -41.547557 -8.138106 -3.979150 1.922942 -48.917989 -2.565354 -4.167771 3.259035 0.017850 0.791530 -0.455490 0.400750 6.422107 8.397351 6.195229 46.146496 3.239487 -9.560408 10.333909 52.047547 2.429975 1.776704 -1.956954 -0.299230 0.187780 0.131720 0.105460 
